<svg id="Layer_1" data-name="Layer 1" xmlns="http://www.w3.org/2000/svg" viewBox="0 0 200 200">
    <defs>
        <style>.cls-1{opacity:0.2;}.cls-2{fill:#fff;}</style>
    </defs>
    <title>money saved</title>
    <g id="MONEY_SAVED" data-name="MONEY SAVED">
        <g class="cls-1">
            <circle class="cls-2" cx="100" cy="100" r="100"/>
        </g>
        <g id="Business">
            <path class="cls-2"
                  d="M106,53.79l-1.68-3.36-1.68.85-31.91,16a5.63,5.63,0,0,0-2.51,7.57l40.55,80.64a5.63,5.63,0,0,0,7.56,2.48l31.91-16,1.68-.85-1.69-3.35ZM94.28,68.11l10.14,20.17L101.06,90,90.92,69.8Zm3.46,40.35L80.85,74.86l3.37-1.69,16.89,33.59Zm21.82,35.31a3.65,3.65,0,0,1-4.9-1.67l-3.43-6.82a3.67,3.67,0,0,1,1.58-4.94l.22-.1a3.65,3.65,0,0,1,4.91,1.66l3.43,6.82a3.66,3.66,0,0,1-1.59,4.94Z"/>
            <path class="cls-2"
                  d="M169.26,125.12,128.71,44.49a5.64,5.64,0,0,0-7.58-2.5l-5,2.53-1.68.84,1.68,3.36,42.23,84,1.69,3.36,1.68-.85,5-2.53A5.65,5.65,0,0,0,169.26,125.12Z"/>
            <path class="cls-2"
                  d="M71.44,101.3,45.07,93.16l-3.58-1.1-.56,1.79L30.4,128a5.63,5.63,0,0,0,3.73,7l64.76,20ZM46.16,115.14l1.11-3.59,21.57,6.66-1.11,3.59Zm-3.32,10.78L44,122.31,79.88,133.4,78.77,137Z"/>
            <path class="cls-2"
                  d="M55.92,70.92l-1.84-.57a5.65,5.65,0,0,0-7,3.74l-1.66,5.38-.56,1.8,3.59,1.11,15.88,4.9Z"/>
        </g>
    </g>
</svg>