<svg id="Layer_1" data-name="Layer 1" xmlns="http://www.w3.org/2000/svg" viewBox="0 0 200 200">
    <defs>
        <style>.cls-1{opacity:0.2;}.cls-2{fill:#fff;}</style>
    </defs>
    <title>system age</title>
    <g id="SYSTEM_AGE" data-name="SYSTEM AGE">
        <g class="cls-1">
            <circle class="cls-2" cx="100" cy="100" r="100"/>
        </g>
        <path class="cls-2"
              d="M156.57,136.52l-13.27-6.71a50.14,50.14,0,0,1-6,8.28l10.43,10.61A64.17,64.17,0,0,0,156.57,136.52Z"/>
        <path class="cls-2" d="M148.8,115.42a50.33,50.33,0,0,1-2.61,8.45l13.29,6.72a64.89,64.89,0,0,0,4-12.7Z"/>
        <path class="cls-2"
              d="M146,85.43l.42,1a49.44,49.44,0,0,1,2.21,7.07l14.76-2a64.63,64.63,0,0,0-2.52-8.83C155.66,84.16,145.89,85.26,146,85.43Z"/>
        <path class="cls-2"
              d="M121.91,165.9l-5.86-13.7a49.91,49.91,0,1,1-16.3-97.15v0c.69,0,1.38,0,2.07,0h.3a31.77,31.77,0,0,1,6.17.83l-2.93,9.2A2,2,0,0,0,108,67.75l28.81-8.64a2.69,2.69,0,0,0,1.72-1.68,2.47,2.47,0,0,0,0-1.45,3.11,3.11,0,0,0-.47-.95L119.62,31.39a2,2,0,0,0-3.72.6l-3,9.49-1.36-.26a44.61,44.61,0,0,0-8.65-1.15l-.08.18A64.77,64.77,0,1,0,121.91,165.9Z"/>
        <path class="cls-2"
              d="M141,155.1c.7-.57,1.39-1.16,2.06-1.76l-10.44-10.62-1,.87a50.16,50.16,0,0,1-9.46,6.08L128,163.35A64.63,64.63,0,0,0,141,155.1Z"/>
        <path class="cls-2" d="M149.67,100.05a49.25,49.25,0,0,1,.07,8.84l14.69,2.47a65.26,65.26,0,0,0,0-13.33Z"/>
        <path class="cls-2"
              d="M120.91,118.93,109,107.47a9.82,9.82,0,0,0,.11-1.34A8.94,8.94,0,0,0,103,97.65L99.37,69.52,96.19,98.14a8.94,8.94,0,1,0,9.28,15.2Zm-20.72-8a4.82,4.82,0,1,1,4.82-4.82A4.83,4.83,0,0,1,100.19,111Z"/>
    </g>
</svg>