<svg id="Layer_1" data-name="Layer 1" xmlns="http://www.w3.org/2000/svg" viewBox="0 0 200 200">
    <defs>
        <style>.cls-1{opacity:0.2;}.cls-2{fill:#fff;}</style>
    </defs>
    <title>cars off road</title>
    <g class="cls-1">
        <circle class="cls-2" cx="100" cy="100" r="100"/>
    </g>
    <path class="cls-2"
          d="M175.34,105.11c.78-11.1-1.78-11.64-2.64-11.82-1.08-.22-15.31-3.27-29.8-6.38-8.82-13.82-27.68-27.33-39.2-28l-3-.2C90.48,58.05,75.1,57,65.47,62.27S42,77.46,34,87.1c0,0-1.06.76-6.79.85-2.12,0-4.26,1.63-4.28,5.13,0,.8,0,1.59,0,2.39a65.41,65.41,0,0,1-.44,9.43,5.2,5.2,0,0,0-2.44,3.4c-.37,3.16.79,9.07,1.82,13.47l.28,1.19H36.52v.22a18.66,18.66,0,0,0,37.31,0V123h55.58V123a18.66,18.66,0,0,0,37.31,0V123H180V107.32Zm-16.36,18a10.86,10.86,0,1,1-10.86-10.86A10.87,10.87,0,0,1,159,123.14Zm-29.2-38.28L128.25,86H85c-.15,0-.58-.43-.87-1V65.33a9.77,9.77,0,0,1,2.28-.6,44.86,44.86,0,0,1,15.63.66C109.18,66.68,121.12,73.89,129.78,84.86ZM76.3,65.65a6.77,6.77,0,0,1,1.26.1V85.33A3.5,3.5,0,0,1,77,86H58.6L54,81.77c.79-2.37,9.24-10.43,14.77-13.54A25.14,25.14,0,0,1,76.3,65.65ZM66.07,123.14a10.86,10.86,0,1,1-10.86-10.86A10.88,10.88,0,0,1,66.07,123.14Z"/>
</svg>