<svg id="Layer_1" data-name="Layer 1" xmlns="http://www.w3.org/2000/svg" viewBox="0 0 200 200">
    <defs>
        <style>.cls-1{opacity:0.2;}.cls-2{fill:#fff;}</style>
    </defs>
    <title>estimated energy saved</title>
    <g id="ESTIMATED_ENERGY_SAVED" data-name="ESTIMATED ENERGY SAVED">
        <g class="cls-1">
            <circle class="cls-2" cx="100" cy="100" r="100"/>
        </g>
        <path class="cls-2" d="M60.73,69.45a6.16,6.16,0,1,0,8.71-8.72L60.82,52.1a6.16,6.16,0,1,0-8.71,8.72Z"/>
        <path class="cls-2" d="M99.84,136.94H100A37,37,0,0,0,100,63h-.16a37,37,0,0,0,0,73.92Z"/>
        <path class="cls-2"
              d="M56.85,100a6.16,6.16,0,0,0-6.22-6.16H38.42a6.16,6.16,0,1,0,0,12.32H50.63A6.18,6.18,0,0,0,56.85,100Z"/>
        <path class="cls-2" d="M161.58,93.84h-12.2a6.16,6.16,0,1,0,0,12.32h12.2a6.16,6.16,0,1,0,0-12.32Z"/>
        <path class="cls-2" d="M60.81,147.9l8.63-8.63a6.16,6.16,0,1,0-8.72-8.71l-8.62,8.62a6.16,6.16,0,1,0,8.71,8.72Z"/>
        <path class="cls-2"
              d="M99.84,56.83l.16,0a6.15,6.15,0,0,0,6.16-6.22V38.42A6.18,6.18,0,0,0,100,32.2l-.16,0a6.14,6.14,0,0,0-6,6.2V50.63A6.16,6.16,0,0,0,99.84,56.83Z"/>
        <path class="cls-2"
              d="M99.84,143.17a6.15,6.15,0,0,0-6,6.21v12.2a6.16,6.16,0,0,0,6,6.2l.16,0a6.15,6.15,0,0,0,6.16-6.22v-12.2a6.17,6.17,0,0,0-6.16-6.23Z"/>
        <path class="cls-2"
              d="M139.27,69.45l8.63-8.63a6.16,6.16,0,1,0-8.72-8.71l-8.63,8.62a6.17,6.17,0,1,0,8.72,8.72Z"/>
        <path class="cls-2" d="M139.27,130.56a6.16,6.16,0,1,0-8.72,8.71l8.63,8.63a6.17,6.17,0,1,0,8.72-8.72Z"/>
    </g>
</svg>