<svg id="Layer_1" data-name="Layer 1" xmlns="http://www.w3.org/2000/svg" viewBox="0 0 200 200">
    <defs>
        <style>.cls-1{opacity:0.2;}.cls-2{fill:#fff;}</style>
    </defs>
    <title>net energy</title>
    <g class="cls-1">
        <circle class="cls-2" cx="100" cy="100" r="100"/>
    </g>
    <path class="cls-2"
          d="M79.16,167.87a6.92,6.92,0,0,0,.46,2.45h0a6.48,6.48,0,0,0,.49,1l.06.11.26.4.13.18.28.36.16.19c.1.12.21.23.31.34l.16.15a8,8,0,0,0,.62.54l.26.21a3.62,3.62,0,0,0,.32.22l.31.2.32.19.38.2.29.15.62.26.2.07.63.2.27.07.53.12.3,0,.56.08.26,0a7.87,7.87,0,0,0,.84,0h22a7.94,7.94,0,0,0,.85,0l.26,0,.56-.08.3,0,.53-.12.27-.07.63-.2.2-.07.62-.26.29-.15.38-.2.31-.19.32-.2a3.62,3.62,0,0,0,.32-.22l.26-.21a6.35,6.35,0,0,0,.61-.54l.17-.15.3-.34.17-.19.28-.36.13-.18.26-.4.06-.11a6.48,6.48,0,0,0,.49-1h0a6.92,6.92,0,0,0,.46-2.45V155.82H79.16Z"/>
    <path class="cls-2"
          d="M132.14,116.08l2.49-4.06h-.5a38.16,38.16,0,1,0-69.67,0h-.64l2.62,4.06c13.64,21.13,12.67,31.07,12.67,31.13l-.44,3h38.21l3,0-.34-2.93C119.47,147.15,118.51,137.21,132.14,116.08Z"/>
    <path class="cls-2" d="M58.53,63.62a6.51,6.51,0,1,0,9.2-9.21l-9.1-9.11a6.51,6.51,0,1,0-9.21,9.21Z"/>
    <path class="cls-2"
          d="M54.43,95.89a6.51,6.51,0,0,0-6.57-6.51H35a6.51,6.51,0,1,0,0,13H47.86A6.52,6.52,0,0,0,54.43,95.89Z"/>
    <path class="cls-2" d="M165,89.38H152.15a6.51,6.51,0,1,0,0,13H165a6.51,6.51,0,1,0,0-13Z"/>
    <path class="cls-2" d="M58.52,128.16l-9.11,9.11a6.51,6.51,0,1,0,9.2,9.2l9.11-9.11a6.51,6.51,0,1,0-9.2-9.2Z"/>
    <path class="cls-2"
          d="M99.83,50.3l.17,0a6.5,6.5,0,0,0,6.51-6.57V30.86A6.52,6.52,0,0,0,100,24.29h-.17a6.5,6.5,0,0,0-6.34,6.56V43.75A6.52,6.52,0,0,0,99.83,50.3Z"/>
    <path class="cls-2" d="M141.47,63.62l9.11-9.11a6.51,6.51,0,1,0-9.2-9.2l-9.11,9.11a6.51,6.51,0,1,0,9.2,9.2Z"/>
    <path class="cls-2" d="M141.47,128.16a6.51,6.51,0,1,0-9.2,9.2l9.11,9.11a6.51,6.51,0,1,0,9.2-9.2Z"/>
</svg>