<svg id="Layer_1" data-name="Layer 1" xmlns="http://www.w3.org/2000/svg" viewBox="0 0 200 200">
    <defs>
        <style>.cls-1{opacity:0.2;}.cls-2{fill:#fff;}</style>
    </defs>
    <title>system pv capacity</title>
    <g id="SYSTEM_PV_CAPACITY" data-name="SYSTEM PV CAPACITY">
        <g class="cls-1">
            <circle class="cls-2" cx="100" cy="100" r="100"/>
        </g>
        <path class="cls-2"
              d="M160.07,118.76,149.42,44.85a3.44,3.44,0,0,0-3.28-3.08H53.86a3.44,3.44,0,0,0-3.28,3.08L39.93,118.76a3.92,3.92,0,0,0,.76,2.94A3.2,3.2,0,0,0,43.22,123H156.78a3.2,3.2,0,0,0,2.53-1.27A3.92,3.92,0,0,0,160.07,118.76Zm-113-3.08,9.6-66.61h86.58l9.6,66.61Z"/>
        <path class="cls-2"
              d="M111.31,147.4V129.54H88.69V147.4c-11,1.7-19.25,5.83-21,10.83h64.54C130.56,153.23,122.34,149.1,111.31,147.4Z"/>
        <polygon class="cls-2" points="60.08 76.78 82.03 76.78 83.36 55.63 62.74 55.63 60.08 76.78"/>
        <polygon class="cls-2" points="109.98 55.63 89.02 55.63 87.97 76.78 110.98 76.78 109.98 55.63"/>
        <polygon class="cls-2" points="57.19 106.44 80.37 106.44 81.81 82.38 59.74 82.38 57.19 106.44"/>
        <polygon class="cls-2" points="88.02 82.38 87.14 106.44 112.2 106.44 111.31 82.38 88.02 82.38"/>
        <polygon class="cls-2" points="136.6 55.63 115.97 55.63 117.3 76.78 139.26 76.78 136.6 55.63"/>
        <polygon class="cls-2" points="117.52 82.38 118.97 106.44 142.14 106.44 139.59 82.38 117.52 82.38"/>
    </g>
</svg>