<svg id="Layer_1" data-name="Layer 1" xmlns="http://www.w3.org/2000/svg" viewBox="0 0 200 200">
    <defs>
        <style>.cls-1{opacity:0.2;}.cls-2{fill:#fff;}</style>
    </defs>
    <title>trees planted</title>
    <g id="TREES_PLANTED" data-name="TREES PLANTED">
        <g class="cls-1">
            <circle class="cls-2" cx="100" cy="100" r="100"/>
        </g>
        <path class="cls-2"
              d="M156.35,100.34c0-10.24-6.34-18.65-14.44-19.6a18.47,18.47,0,0,0-17.49-30c0-.1,0-.2,0-.3,0-10.69-10.94-19.35-24.44-19.35S75.56,39.75,75.56,50.44c0,.07,0,.14,0,.22A17.7,17.7,0,0,0,58.75,78.81c-8.71,2.7-15.1,11.51-15.1,22,0,12.21,8.67,22.16,19.59,22.81A25.12,25.12,0,0,0,86.91,140.4c.46,0,.91,0,1.36-.05v-30c0-9-9.27-13.69-9.36-13.73l2.43-4.86c.5.25,12.36,6.32,12.36,18.59v42.23h-.49v5C76,158.74,61.54,163,53.68,168.91H150c-8.48-6.37-24.71-10.84-43.69-11.46V139.83a29.43,29.43,0,0,0,5.69.57c13.6,0,24.63-9.12,24.63-20.37,0-.2,0-.38,0-.58a12.85,12.85,0,0,0,3.77.58C149.21,120,156.35,111.21,156.35,100.34ZM79.19,84.87l-.07-.09.09,0A.51.51,0,0,1,79.19,84.87Zm34.74,18c-1.38-1.14-2.82-2.24-4.34-3.29a26.55,26.55,0,0,1,8.88-7.83l2.43,4.86A20.82,20.82,0,0,0,113.93,102.92Z"/>
    </g>
</svg>